<svg width="20" height="20" viewBox="0 0 20 20" fill="none" xmlns="http://www.w3.org/2000/svg">
<path d="M9.94727 4.81872C12.7324 4.81872 15.0312 7.11756 15.0312 9.90269C15.0312 12.732 12.7324 14.9867 9.94727 14.9867C7.11792 14.9867 4.86329 12.732 4.86329 9.90269C4.86329 7.11756 7.11792 4.81872 9.94727 4.81872ZM9.94727 13.2183C11.7598 13.2183 13.2187 11.7594 13.2187 9.90269C13.2187 8.09015 11.7598 6.63127 9.94727 6.63127C8.09051 6.63127 6.63163 8.09015 6.63163 9.90269C6.63163 11.7594 8.13472 13.2183 9.94727 13.2183ZM16.4017 4.64189C16.4017 5.30501 15.8712 5.83551 15.2081 5.83551C14.5449 5.83551 14.0144 5.30501 14.0144 4.64189C14.0144 3.97876 14.5449 3.44826 15.2081 3.44826C15.8712 3.44826 16.4017 3.97876 16.4017 4.64189ZM19.7615 5.83551C19.85 7.47123 19.85 12.3784 19.7615 14.0141C19.6731 15.6056 19.3195 16.976 18.17 18.1697C17.0206 19.3191 15.6059 19.6728 14.0144 19.7612C12.3787 19.8496 7.47159 19.8496 5.83588 19.7612C4.24437 19.6728 2.87391 19.3191 1.68028 18.1697C0.530864 16.976 0.177196 15.6056 0.0887794 14.0141C0.000362463 12.3784 0.000362463 7.47123 0.0887794 5.83551C0.177196 4.24401 0.530864 2.82934 1.68028 1.67992C2.87391 0.530499 4.24437 0.176831 5.83588 0.0884143C7.47159 -2.6226e-06 12.3787 -2.6226e-06 14.0144 0.0884143C15.6059 0.176831 17.0206 0.530499 18.17 1.67992C19.3195 2.82934 19.6731 4.24401 19.7615 5.83551ZM17.6395 15.7382C18.17 14.4562 18.0374 11.3616 18.0374 9.90269C18.0374 8.48802 18.17 5.39343 17.6395 4.06718C17.2859 3.22721 16.6227 2.51988 15.7828 2.21042C14.4565 1.67992 11.3619 1.81254 9.94727 1.81254C8.48839 1.81254 5.39379 1.67992 4.11175 2.21042C3.22758 2.56409 2.56445 3.22721 2.21079 4.06718C1.68028 5.39343 1.81291 8.48802 1.81291 9.90269C1.81291 11.3616 1.68028 14.4562 2.21079 15.7382C2.56445 16.6224 3.22758 17.2855 4.11175 17.6392C5.39379 18.1697 8.48839 18.037 9.94727 18.037C11.3619 18.037 14.4565 18.1697 15.7828 17.6392C16.6227 17.2855 17.3301 16.6224 17.6395 15.7382Z" fill="white"/>
</svg>
