<?xml version="1.0" encoding="UTF-8"?><svg id="Layer_2" xmlns="http://www.w3.org/2000/svg" viewBox="0 0 138 35"><defs><style>.cls-1{fill:none;stroke:#2e2320;stroke-linecap:round;stroke-linejoin:round;stroke-width:2px;}.cls-2{fill:#fcfcfc;}</style></defs><g id="Layer_1-2"><path class="cls-2" d="M134.85.56c1.41-.17,2.47-.29,3.15-.56h-69s0,6.36,0,15.49c0-1.21,0-2.38,0-3.48V0s-69,0-69,0c.68.27,1.74.4,3.15.56,3.74.44,9.95,1.16,18.17,5.75,5.66,3.3,10.15,7.71,14.61,12.09,8.52,8.37,16.9,16.6,33.07,16.6,0-5.27,0-10.43,0-15.1,0,4.67,0,9.82,0,15.1,16.17,0,24.55-8.23,33.07-16.6,4.45-4.37,8.94-8.79,14.61-12.08,8.22-4.59,14.43-5.31,18.17-5.75Z"/><path class="cls-1" d="M69,15.26V1.26"/><path class="cls-1" d="M69,15.26l6-6"/><path class="cls-1" d="M69,15.26l-6-6"/></g></svg>