<svg width="60" height="60" viewBox="0 0 60 60" fill="none" xmlns="http://www.w3.org/2000/svg">
<circle cx="30" cy="30" r="29.25" stroke="#2E2320" stroke-width="1.5"/>
<path d="M29.8125 23.8105C33.1348 23.8105 35.877 26.5527 35.877 29.875C35.877 33.25 33.1348 35.9395 29.8125 35.9395C26.4375 35.9395 23.748 33.25 23.748 29.875C23.748 26.5527 26.4375 23.8105 29.8125 23.8105ZM29.8125 33.8301C31.9746 33.8301 33.7148 32.0898 33.7148 29.875C33.7148 27.7129 31.9746 25.9727 29.8125 25.9727C27.5977 25.9727 25.8574 27.7129 25.8574 29.875C25.8574 32.0898 27.6504 33.8301 29.8125 33.8301ZM37.5117 23.5996C37.5117 24.3906 36.8789 25.0234 36.0879 25.0234C35.2969 25.0234 34.6641 24.3906 34.6641 23.5996C34.6641 22.8086 35.2969 22.1758 36.0879 22.1758C36.8789 22.1758 37.5117 22.8086 37.5117 23.5996ZM41.5195 25.0234C41.625 26.9746 41.625 32.8281 41.5195 34.7793C41.4141 36.6777 40.9922 38.3125 39.6211 39.7363C38.25 41.1074 36.5625 41.5293 34.6641 41.6348C32.7129 41.7402 26.8594 41.7402 24.9082 41.6348C23.0098 41.5293 21.375 41.1074 19.9512 39.7363C18.5801 38.3125 18.1582 36.6777 18.0527 34.7793C17.9473 32.8281 17.9473 26.9746 18.0527 25.0234C18.1582 23.125 18.5801 21.4375 19.9512 20.0664C21.375 18.6953 23.0098 18.2734 24.9082 18.168C26.8594 18.0625 32.7129 18.0625 34.6641 18.168C36.5625 18.2734 38.25 18.6953 39.6211 20.0664C40.9922 21.4375 41.4141 23.125 41.5195 25.0234ZM38.9883 36.8359C39.6211 35.3066 39.4629 31.6152 39.4629 29.875C39.4629 28.1875 39.6211 24.4961 38.9883 22.9141C38.5664 21.9121 37.7754 21.0684 36.7734 20.6992C35.1914 20.0664 31.5 20.2246 29.8125 20.2246C28.0723 20.2246 24.3809 20.0664 22.8516 20.6992C21.7969 21.1211 21.0059 21.9121 20.584 22.9141C19.9512 24.4961 20.1094 28.1875 20.1094 29.875C20.1094 31.6152 19.9512 35.3066 20.584 36.8359C21.0059 37.8906 21.7969 38.6816 22.8516 39.1035C24.3809 39.7363 28.0723 39.5781 29.8125 39.5781C31.5 39.5781 35.1914 39.7363 36.7734 39.1035C37.7754 38.6816 38.6191 37.8906 38.9883 36.8359Z" fill="#2E2320"/>
</svg>
