<svg width="60" height="60" viewBox="0 0 60 60" fill="none" xmlns="http://www.w3.org/2000/svg">
<circle cx="30" cy="30" r="29.25" stroke="#2E2320" stroke-width="1.5"/>
<path d="M42.4512 22.9668C43.084 25.1816 43.084 29.9277 43.084 29.9277C43.084 29.9277 43.084 34.6211 42.4512 36.8887C42.1348 38.1543 41.1328 39.1035 39.9199 39.4199C37.6523 40 28.6875 40 28.6875 40C28.6875 40 19.6699 40 17.4023 39.4199C16.1895 39.1035 15.1875 38.1543 14.8711 36.8887C14.2383 34.6211 14.2383 29.9277 14.2383 29.9277C14.2383 29.9277 14.2383 25.1816 14.8711 22.9668C15.1875 21.7012 16.1895 20.6992 17.4023 20.3828C19.6699 19.75 28.6875 19.75 28.6875 19.75C28.6875 19.75 37.6523 19.75 39.9199 20.3828C41.1328 20.6992 42.1348 21.7012 42.4512 22.9668ZM25.7344 34.1992L33.2227 29.9277L25.7344 25.6562V34.1992Z" fill="#2E2320"/>
</svg>
