<svg width="25" height="17" viewBox="0 0 25 17" fill="none" xmlns="http://www.w3.org/2000/svg">
<path d="M23.6517 2.69671C24.1822 4.55347 24.1822 8.53223 24.1822 8.53223C24.1822 8.53223 24.1822 12.4668 23.6517 14.3677C23.3864 15.4287 22.5465 16.2245 21.5297 16.4898C19.6287 16.976 12.1133 16.976 12.1133 16.976C12.1133 16.976 4.55363 16.976 2.65267 16.4898C1.63588 16.2245 0.795915 15.4287 0.530665 14.3677C0.000163093 12.4668 0.000163093 8.53223 0.000163093 8.53223C0.000163093 8.53223 0.000163093 4.55347 0.530665 2.69671C0.795915 1.63571 1.63588 0.795748 2.65267 0.530497C4.55363 -4.76837e-06 12.1133 -4.76837e-06 12.1133 -4.76837e-06C12.1133 -4.76837e-06 19.6287 -4.76837e-06 21.5297 0.530497C22.5465 0.795748 23.3864 1.63571 23.6517 2.69671ZM9.63761 12.1131L15.9152 8.53223L9.63761 4.95134V12.1131Z" fill="white"/>
</svg>
