<?xml version="1.0" encoding="UTF-8"?><svg id="Layer_2" xmlns="http://www.w3.org/2000/svg" viewBox="0 0 224.2 54.46"><defs><style>.cls-1{fill:#fff;}</style></defs><g id="Layer_1-2"><path class="cls-1" d="M63.95,27.01c-.71-4.33-2.41-8.31-4.7-12.04-3.07-5.02-7.05-8.93-12.1-11.53-1.34-.69-2.75-1.29-4.24-1.8C39.08.34,35.13.07,31.12,0c-4.94-.08-9.62,1.06-13.83,3.44-.17.1-.34.19-.51.3-4.27,2.54-7.8,5.64-10.49,9.32C3.34,17.09,1.37,21.81.47,27.26c-.71,4.3-.65,8.57.38,12.81.86,3.57,2.41,6.86,4.29,9.99.36.6.75,1.19,1.15,1.77.44.65.9,1.28,1.37,1.9.55.74,1.16.83,1.65.45.49-.37.48-.91-.03-1.71-.03-.04-.06-.08-.09-.13-.87-1.39-1.78-2.76-2.59-4.18-.1-.18-.21-.37-.31-.55-3.44-6.26-4.54-12.97-3.4-20.04.57-3.56,1.66-6.93,3.4-10.03.54-.96,1.14-1.9,1.8-2.8,4.21-5.74,9.43-9.57,15.56-11.3,2.22-.62,4.55-.97,7-1.04,1.85.1,3.16.15,4.47.25,1.71.13,3.36.39,4.94.79,5.5,1.37,10.21,4.34,14.09,8.77,4.53,5.18,7.19,11.31,7.7,18.23.44,6-.69,11.69-3.74,16.93-1.08,1.86-2.27,3.66-3.4,5.49-.26.42-.5.83.03,1.28.53.45,1.01.37,1.43-.05.44-.45.87-.95,1.2-1.49,1.54-2.5,3.15-4.97,4.52-7.56,1.5-2.84,2.07-5.96,2.32-9.15.24-2.97.21-5.95-.27-8.88h0Z"/><path class="cls-1" d="M55.03,49.94l-8.74-1.48c.11-.41.28-.98.25-.98.09-.49.17-.9.25-1.31.33-1.81,1.36-3.27,2.33-4.76.21-.32.35-.77.34-1.15-.04-1.15-.2-2.29-.26-3.45-.12-2.07-.38-4.1-1.16-6.06-.6-1.51-.98-3.1-1.55-4.62-.26-.68-.62-1.42-1.16-1.89-2.13-1.88-3.25-4.34-4.2-6.91-.22-.6-.47-.89-1.11-.99-1.85-.27-3.68-.63-5.11-2-.16-.16-.54-.19-.8-.14-.74.14-1.46.38-2.21.53-2.04.4-3.82,1.42-5.68,2.26-1.14.51-1.92,1.17-2.31,2.34-.33,1-1.02,1.66-1.99,2.1-1.14.52-2.24,1.14-3.35,1.74-.21.11-.46.32-.51.53-.41,1.78-1.34,3.28-2.39,4.74-.52.72-1.02,1.44-.87,2.43.08.56.06,1.16-.07,1.71-.4,1.7-.84,3.39-1.31,5.07-.16.56-.13.98.16,1.53.76,1.42,1.62,2.86,1.98,4.4.25,1.1.37,2.18,1.02,3.13.11.17.17.38.3.69l.5,1.22-7.7,1.3h45.36ZM34.99,30.99c-.83.71-1.66,1.42-2.48,2.14-.28.24-.56.48-.84.72-.22.19-.45.39-.67.57-.22.19-.45.38-.67.57-.2.17-.4.33-.6.5-.34.28-.68.56-1.03.84-.26.21-.52.41-.78.62-.26.2-.52.4-.79.6-1.23.93-2.87,1.35-4.35,1.92-.5.2-.74.42-.96.94-.5,1.13-1.21,2.17-1.82,3.26-.45.8-.88,1.62-1.32,2.43-.28-.4-.67-.91-1-1.46-.09-.14-.06-.44.03-.6.99-1.78,2.03-3.52,2.98-5.32.31-.59.62-.97,1.31-1.18,1.09-.34,2.16-.81,3.18-1.34.42-.22.85-.44,1.28-.67.7-.37,1.4-.74,2.1-1.11,2.16-1.15,4.31-2.31,6.44-3.45h0s0,.01,0,.01ZM43.56,25.76c.1-.23.5-.32.76-.48.08.08.16.17.24.25-.82,1.65-1.64,3.31-2.47,4.96-.13-.07-.26-.13-.38-.19.61-1.52,1.19-3.04,1.84-4.54ZM41.36,35.57c-.04,1-.05,2.27-.19,3.51-.04.34-.45.71-.78.93-.75.51-1.66.82-2.3,1.43-.59.56-.93,1.39-1.35,2.04.04-1.34.53-2.64,1.37-3.79,1.08-1.47,2.25-2.87,3.24-4.12h0ZM15.4,38.45c0-.49-.06-.77,0-1.02.55-2.12,1.16-4.22,1.13-6.47-.01-.69.45-1.42.79-2.08.34-.67.91-1.25,1.18-1.94.79-2.08,2.48-3.21,4.34-4.06,1.15-.53,1.97-1.3,2.49-2.39.49-1.04,1.26-1.72,2.28-2.17,1.65-.74,3.29-1.48,4.94-2.2.21-.09.45-.16.68-.17.49-.02.77.25.46.67-1.1,1.52-1.83,3.27-3.62,4.33-1.83,1.09-3.38,2.63-5.05,3.98-.16.13-.27.3-.36.53,2.44-.54,4.61-1.69,6.76-2.9,2.17-1.22,4.4-2.32,6.6-3.48.04.05.09.1.13.15-.19.17-.37.35-.57.5-2.03,1.62-4.09,3.21-6.08,4.88-.44.37-.72,1.01-.93,1.58-.57,1.54-1.05,3.11-1.58,4.67-.09.25-.27.46-.5.66.43-1.9.68-3.79.39-5.85-.71.5-1.31.96-1.94,1.35-1.83,1.13-3.65,2.26-5.53,3.31-.61.34-.89.7-1.07,1.38-.69,2.63-1.48,5.23-2.24,7.84-.02.07-.09.12-.13.17-.05,0-.1,0-.16-.01.22-2.3.45-4.61.67-6.91-1.02,1.83-1.6,3.85-3.11,5.65h0Z"/><path class="cls-1" d="M77.49,27.23V9.78h7.53c1.3,0,2.43.24,3.4.71s1.73,1.15,2.27,2.04c.54.89.81,1.95.81,3.19s-.28,2.3-.84,3.16c-.55.86-1.33,1.51-2.33,1.94-.99.44-2.16.66-3.49.66h-4.5v-3.68h3.55c.56,0,1.03-.07,1.42-.2.4-.14.7-.37.91-.67.22-.31.32-.71.32-1.2s-.11-.91-.32-1.22c-.21-.32-.51-.55-.91-.7-.39-.15-.87-.23-1.42-.23h-1.67v13.67h-4.74ZM87.72,19.22l4.36,8.01h-5.15l-4.26-8.01h5.05ZM110.43,18.5c0,1.94-.38,3.58-1.13,4.92-.76,1.33-1.78,2.34-3.06,3.03-1.28.68-2.72,1.02-4.29,1.02s-3.03-.34-4.31-1.03c-1.28-.69-2.3-1.7-3.05-3.03-.75-1.34-1.12-2.97-1.12-4.9s.38-3.58,1.12-4.91c.76-1.34,1.77-2.34,3.05-3.03,1.28-.69,2.72-1.03,4.31-1.03s3.01.34,4.29,1.03c1.28.68,2.3,1.69,3.06,3.03.76,1.33,1.13,2.97,1.13,4.91ZM105.56,18.5c0-1.05-.14-1.93-.42-2.64-.27-.72-.68-1.27-1.22-1.64-.53-.38-1.19-.56-1.98-.56s-1.45.19-1.99.56c-.53.37-.94.91-1.22,1.64-.27.72-.41,1.6-.41,2.64s.14,1.93.41,2.65c.28.72.68,1.26,1.22,1.64.54.37,1.2.55,1.99.55s1.44-.18,1.98-.55c.54-.38.95-.92,1.22-1.64.28-.72.42-1.61.42-2.65ZM128.92,16.32h-4.81c-.03-.4-.12-.76-.27-1.08-.14-.32-.34-.6-.6-.84-.25-.24-.55-.42-.91-.55-.36-.13-.76-.2-1.22-.2-.8,0-1.47.19-2.02.58-.55.39-.96.94-1.25,1.66-.28.72-.42,1.59-.42,2.6,0,1.07.14,1.96.43,2.68.29.72.71,1.26,1.25,1.62.54.36,1.2.54,1.97.54.44,0,.83-.05,1.18-.16.35-.11.65-.28.9-.49.26-.21.46-.46.62-.76.17-.3.28-.64.33-1.01l4.81.03c-.06.74-.26,1.49-.62,2.26-.36.76-.87,1.47-1.53,2.11-.65.64-1.46,1.16-2.43,1.55-.97.39-2.09.59-3.37.59-1.6,0-3.04-.34-4.31-1.03-1.27-.69-2.27-1.7-3.01-3.03-.73-1.34-1.1-2.97-1.1-4.9s.38-3.58,1.12-4.91c.75-1.34,1.76-2.34,3.03-3.03,1.27-.69,2.69-1.03,4.26-1.03,1.1,0,2.12.15,3.04.45.93.3,1.74.74,2.44,1.32.7.57,1.26,1.28,1.69,2.12.43.84.68,1.8.78,2.89ZM131.07,27.23V9.78h4.74v7.06h.24l5.25-7.06h5.52l-5.9,7.77,6.03,9.68h-5.66l-3.92-6.55-1.57,2.05v4.5h-4.74ZM162.42,15.23c-.05-.57-.26-1.01-.64-1.33-.38-.32-.95-.48-1.71-.48-.49,0-.89.06-1.2.18-.31.11-.53.27-.68.47-.15.2-.22.43-.23.68-.01.21.03.4.11.57.09.16.23.32.43.45.19.13.44.25.74.36.3.11.66.2,1.07.29l1.43.31c.97.2,1.79.47,2.48.81.69.34,1.25.73,1.69,1.18.44.45.76.95.96,1.52.21.56.32,1.18.32,1.84,0,1.15-.29,2.12-.86,2.91s-1.38,1.4-2.44,1.82c-1.05.41-2.32.62-3.79.62s-2.84-.22-3.97-.67c-1.12-.45-2-1.14-2.62-2.07-.62-.94-.93-2.14-.94-3.6h4.5c.03.53.16.98.4,1.35.24.36.57.64,1.01.83.44.19.96.28,1.56.28.51,0,.93-.06,1.27-.19.34-.12.6-.3.78-.52.18-.22.27-.47.27-.76,0-.27-.09-.5-.26-.7-.16-.2-.44-.39-.82-.55-.38-.16-.9-.32-1.54-.46l-1.74-.38c-1.54-.34-2.76-.89-3.66-1.68-.89-.79-1.33-1.87-1.32-3.23,0-1.11.29-2.08.89-2.91.6-.84,1.43-1.49,2.5-1.95,1.07-.47,2.29-.7,3.67-.7s2.63.24,3.66.71c1.03.47,1.82,1.14,2.38,1.99.56.85.85,1.85.85,2.99h-4.53ZM185.9,18.5c0,1.94-.38,3.58-1.13,4.92-.76,1.33-1.78,2.34-3.06,3.03-1.28.68-2.72,1.02-4.29,1.02s-3.03-.34-4.31-1.03c-1.28-.69-2.29-1.7-3.05-3.03-.75-1.34-1.12-2.97-1.12-4.9s.38-3.58,1.12-4.91c.76-1.34,1.77-2.34,3.05-3.03,1.28-.69,2.72-1.03,4.31-1.03s3.01.34,4.29,1.03c1.28.68,2.3,1.69,3.06,3.03.76,1.33,1.13,2.97,1.13,4.91ZM181.02,18.5c0-1.05-.14-1.93-.42-2.64-.27-.72-.68-1.27-1.22-1.64-.53-.38-1.19-.56-1.98-.56s-1.45.19-1.99.56c-.53.37-.94.91-1.22,1.64-.27.72-.41,1.6-.41,2.64s.14,1.93.41,2.65c.28.72.68,1.26,1.22,1.64.54.37,1.2.55,1.99.55s1.44-.18,1.98-.55c.54-.38.95-.92,1.22-1.64.28-.72.42-1.61.42-2.65ZM188.09,27.23V9.78h4.74v13.64h7.06v3.82h-11.8ZM206.54,9.78v17.45h-4.74V9.78h4.74ZM215.5,27.23h-6.72V9.78h6.65c1.79,0,3.35.35,4.65,1.05,1.31.69,2.32,1.69,3.03,3,.72,1.3,1.07,2.86,1.07,4.68s-.35,3.38-1.07,4.69c-.71,1.3-1.72,2.3-3.02,3-1.3.69-2.84,1.04-4.61,1.04h0ZM213.53,23.21h1.81c.86,0,1.6-.14,2.21-.42.61-.28,1.08-.76,1.4-1.44.32-.68.49-1.63.49-2.85s-.16-2.16-.49-2.85c-.32-.68-.8-1.16-1.43-1.44-.62-.28-1.39-.42-2.3-.42h-1.67v9.41Z"/><path class="cls-1" d="M86.36,42.73h-1c-.07-.37-.21-.72-.4-1.03-.19-.32-.43-.6-.72-.84-.29-.24-.62-.42-.99-.55s-.77-.2-1.2-.2c-.69,0-1.32.18-1.89.54-.56.36-1.02.89-1.36,1.58-.34.69-.51,1.54-.51,2.55s.17,1.86.51,2.56c.34.69.79,1.22,1.36,1.58.57.36,1.2.53,1.89.53.43,0,.83-.07,1.2-.2s.7-.31.99-.55c.29-.24.53-.52.72-.84.2-.32.33-.67.4-1.04h1c-.09.5-.26.97-.5,1.4-.24.43-.55.81-.93,1.13-.37.32-.8.58-1.29.76-.49.18-1.02.27-1.6.27-.92,0-1.73-.23-2.44-.69-.71-.46-1.27-1.11-1.67-1.95-.4-.84-.6-1.83-.6-2.97s.2-2.13.6-2.97c.4-.84.96-1.49,1.67-1.94.71-.46,1.52-.69,2.44-.69.58,0,1.12.09,1.6.27.49.18.92.43,1.29.76.38.32.69.7.93,1.13.25.43.41.9.5,1.4ZM88.7,50.23v-10.91h1v5h6.19v-5h1v10.91h-1v-5.01h-6.19v5.01h-1ZM99.77,50.23v-10.91h3.52c.77,0,1.42.14,1.94.42.52.28.91.66,1.18,1.16.27.49.4,1.05.4,1.69s-.13,1.2-.4,1.68c-.26.49-.65.87-1.17,1.14-.52.27-1.16.41-1.93.41h-3v-.91h2.97c.57,0,1.04-.09,1.42-.28.38-.19.66-.46.85-.8.19-.35.28-.76.28-1.24s-.1-.89-.28-1.25c-.19-.36-.47-.64-.85-.83-.38-.2-.85-.29-1.43-.29h-2.5v10.01h-1ZM104.58,45.31l2.68,4.92h-1.15l-2.66-4.92h1.12ZM110.23,39.32v10.91h-1v-10.91h1ZM119.05,42.05c-.06-.61-.33-1.09-.81-1.45-.47-.36-1.07-.54-1.79-.54-.51,0-.96.09-1.34.26-.38.17-.68.42-.91.72-.22.31-.32.65-.32,1.04,0,.29.06.54.19.76.12.22.29.4.5.56.21.15.45.28.7.39.26.11.52.2.78.28l1.15.33c.35.1.7.22,1.04.37.35.15.67.34.95.56.29.22.52.5.7.83.18.32.27.71.27,1.17,0,.58-.15,1.11-.45,1.57s-.74.83-1.3,1.11c-.57.27-1.24.4-2.03.4-.74,0-1.39-.12-1.93-.37-.55-.25-.98-.59-1.29-1.03-.31-.44-.49-.94-.53-1.52h1.02c.04.43.18.79.43,1.09s.57.53.97.68c.4.15.84.23,1.33.23.54,0,1.03-.09,1.45-.27.43-.18.76-.44,1-.77.25-.33.37-.71.37-1.15,0-.37-.1-.68-.29-.93-.19-.25-.46-.46-.8-.63-.34-.17-.74-.32-1.19-.45l-1.31-.38c-.86-.26-1.52-.61-1.99-1.06s-.71-1.03-.71-1.73c0-.59.16-1.1.47-1.54.32-.45.74-.8,1.28-1.04.54-.25,1.14-.38,1.82-.38s1.28.12,1.8.37c.52.25.94.59,1.24,1.03.31.43.47.93.5,1.48h-.96ZM121.9,40.22v-.89h7.91v.89h-3.46v10.01h-1v-10.01h-3.46ZM133.05,39.32v10.91h-1v-10.91h1ZM135.97,50.23h-1.04l3.97-10.91h1.07l3.97,10.91h-1.04l-3.42-9.61h-.07l-3.42,9.61ZM136.72,46.05h5.41v.89h-5.41v-.89ZM154.29,39.32v10.91h-.97l-6.45-9.14h-.09v9.14h-1v-10.91h.96l6.47,9.15h.09v-9.15h.98ZM169.96,42.73h-1c-.07-.37-.21-.72-.4-1.03-.19-.32-.43-.6-.73-.84s-.62-.42-.99-.55c-.37-.13-.77-.2-1.2-.2-.69,0-1.32.18-1.89.54-.56.36-1.02.89-1.36,1.58-.34.69-.51,1.54-.51,2.55s.17,1.86.51,2.56c.34.69.79,1.22,1.36,1.58.57.36,1.2.53,1.89.53.43,0,.83-.07,1.2-.2.37-.13.7-.31.99-.55.29-.24.53-.52.73-.84.2-.32.33-.67.4-1.04h1c-.09.5-.26.97-.5,1.4-.24.43-.55.81-.93,1.13-.37.32-.8.58-1.29.76-.49.18-1.02.27-1.6.27-.92,0-1.73-.23-2.44-.69-.71-.46-1.27-1.11-1.67-1.95-.4-.84-.6-1.83-.6-2.97s.2-2.13.6-2.97c.4-.84.96-1.49,1.67-1.94.71-.46,1.52-.69,2.44-.69.58,0,1.12.09,1.6.27.49.18.92.43,1.29.76.38.32.69.7.93,1.13.24.43.41.9.5,1.4ZM172.3,50.23v-10.91h1v5h6.19v-5h1v10.91h-1v-5.01h-6.19v5.01h-1ZM190.64,39.32h1v7.22c0,.74-.17,1.41-.52,1.99-.35.58-.83,1.04-1.45,1.38-.62.33-1.34.5-2.16.5s-1.54-.17-2.16-.51c-.62-.34-1.11-.8-1.45-1.38-.35-.58-.52-1.24-.52-1.99v-7.22h1v7.15c0,.58.13,1.1.39,1.55.26.45.62.81,1.09,1.07.47.26,1.02.39,1.66.39s1.18-.13,1.66-.39c.47-.26.84-.61,1.09-1.07.26-.45.39-.97.39-1.55v-7.15ZM194.53,50.23v-10.91h3.52c.77,0,1.42.14,1.94.42.52.28.91.66,1.18,1.16.27.49.4,1.05.4,1.69s-.13,1.2-.4,1.68c-.26.49-.65.87-1.17,1.14-.52.27-1.16.41-1.93.41h-3v-.91h2.97c.57,0,1.04-.09,1.42-.28.38-.19.66-.46.85-.8.19-.35.28-.76.28-1.24s-.09-.89-.28-1.25c-.19-.36-.47-.64-.85-.83-.38-.2-.85-.29-1.43-.29h-2.5v10.01h-1ZM199.34,45.31l2.68,4.92h-1.15l-2.66-4.92h1.12ZM212.54,42.73h-1c-.07-.37-.21-.72-.4-1.03-.19-.32-.43-.6-.73-.84s-.62-.42-.99-.55c-.37-.13-.77-.2-1.2-.2-.69,0-1.32.18-1.89.54-.56.36-1.02.89-1.36,1.58-.34.69-.51,1.54-.51,2.55s.17,1.86.51,2.56c.34.69.79,1.22,1.36,1.58.57.36,1.2.53,1.89.53.43,0,.83-.07,1.2-.2.37-.13.7-.31.99-.55.29-.24.53-.52.73-.84.2-.32.33-.67.4-1.04h1c-.09.5-.26.97-.5,1.4-.24.43-.55.81-.93,1.13-.37.32-.8.58-1.29.76-.49.18-1.02.27-1.6.27-.92,0-1.73-.23-2.44-.69-.71-.46-1.27-1.11-1.67-1.95-.4-.84-.6-1.83-.6-2.97s.2-2.13.6-2.97c.4-.84.96-1.49,1.67-1.94.71-.46,1.52-.69,2.44-.69.58,0,1.12.09,1.6.27.49.18.92.43,1.29.76.38.32.69.7.93,1.13.24.43.41.9.5,1.4ZM214.88,50.23v-10.91h1v5h6.19v-5h1v10.91h-1v-5.01h-6.19v5.01h-1Z"/></g></svg>